# Blender 3.3.0
# www.blender.org
mtllib sax mayo rak part2.mtl
o top_blade
v -0.016820 0.000000 -0.091464
v -0.005739 0.000000 -0.077960
v -0.016476 -0.000000 -0.115649
v -0.008017 -0.000000 -0.106769
v -0.015846 -0.000000 -0.149229
v -0.012113 -0.000000 -0.147128
v -0.014364 -0.000000 -0.150662
v -0.012603 -0.000000 -0.150676
v -0.011280 0.000000 -0.084712
v -0.004535 0.000000 -0.052333
v -0.010076 0.000000 -0.056774
v -0.003561 0.000000 -0.027164
v -0.009207 0.000000 -0.021613
v -0.005568 0.000000 -0.026859
v -0.001610 0.000000 -0.023820
v -0.003765 0.000000 -0.021805
v 0.001751 0.000000 -0.028643
v 0.002302 0.000000 -0.025264
v 0.008287 0.000000 -0.027476
v 0.007051 0.000000 -0.024788
v 0.013345 0.000000 -0.023716
v 0.010864 0.000000 -0.021598
v 0.015366 0.000000 -0.017389
v 0.012076 0.000000 -0.017199
v 0.015115 0.000000 -0.011133
v 0.011928 0.000000 -0.012081
v 0.012570 0.000000 -0.005091
v 0.010222 0.000000 -0.007403
v 0.008353 0.000000 -0.001371
v 0.006966 0.000000 -0.004286
v 0.003358 0.000000 0.000219
v 0.003109 0.000000 -0.002864
v -0.001870 0.000000 -0.000958
v -0.000730 0.000000 -0.004075
v -0.006789 0.000000 -0.005723
v -0.003990 0.000000 -0.007777
v -0.009037 0.000000 -0.012661
v -0.005561 0.000000 -0.012651
v -0.009189 0.000000 -0.017890
v -0.005702 0.000000 -0.016796
v -0.003240 -0.000463 -0.024936
v -0.005379 0.000000 -0.019093
v -0.007308 -0.000463 -0.012571
v -0.001283 -0.000463 -0.002569
v 0.007673 -0.000463 -0.002919
v 0.013405 -0.000463 -0.011653
v 0.012032 -0.000463 -0.022613
v 0.002050 -0.000463 -0.026696
v -0.007203 -0.000463 -0.020120
v -0.007628 -0.000463 -0.017346
v -0.005356 -0.000463 -0.006764
v 0.003209 -0.000463 -0.001256
v 0.011269 -0.000463 -0.006419
v 0.013769 -0.000463 -0.017254
v 0.007590 -0.000463 -0.025975
v -0.005018 -0.000463 -0.023199
v -0.008961 0.000000 -0.105322
v -0.007642 0.000000 -0.080279
v -0.006599 0.000000 -0.053987
v -0.010918 -0.000000 -0.105614
v -0.013030 -0.000000 -0.108554
v -0.013969 -0.000000 -0.112727
v -0.014418 -0.000000 -0.115653
v -0.014715 -0.000000 -0.147286
v -0.014207 -0.000000 -0.149366
v -0.016820 0.001080 -0.091464
v -0.005739 0.001080 -0.077960
v -0.016476 0.001080 -0.115649
v -0.008017 0.000463 -0.106769
v -0.015846 0.001080 -0.149229
v -0.012091 0.000463 -0.147137
v -0.014364 0.001080 -0.150662
v -0.012603 0.000463 -0.150676
v -0.011280 0.001080 -0.084712
v -0.004535 0.001080 -0.052333
v -0.010076 0.001080 -0.056774
v -0.003561 0.001080 -0.027164
v -0.009207 0.001080 -0.021613
v -0.005568 0.001234 -0.026859
v -0.001610 0.001080 -0.023820
v -0.003765 0.001080 -0.021805
v 0.001751 0.001080 -0.028643
v 0.002302 0.001080 -0.025264
v 0.008287 0.001080 -0.027476
v 0.007051 0.001080 -0.024788
v 0.013345 0.001080 -0.023716
v 0.010864 0.001080 -0.021598
v 0.015366 0.001080 -0.017389
v 0.012076 0.001080 -0.017199
v 0.015115 0.001080 -0.011133
v 0.011928 0.001080 -0.012081
v 0.012570 0.001080 -0.005091
v 0.010222 0.001080 -0.007403
v 0.008353 0.001080 -0.001371
v 0.006966 0.001080 -0.004286
v 0.003358 0.001080 0.000219
v 0.003109 0.001080 -0.002864
v -0.001870 0.001080 -0.000958
v -0.000730 0.001080 -0.004075
v -0.006789 0.001080 -0.005723
v -0.003990 0.001080 -0.007777
v -0.009037 0.001080 -0.012661
v -0.005561 0.001080 -0.012651
v -0.009189 0.001080 -0.017890
v -0.005702 0.001080 -0.016796
v -0.003240 0.001542 -0.024936
v -0.005379 0.001080 -0.019093
v -0.007308 0.001542 -0.012571
v -0.001283 0.001542 -0.002569
v 0.007673 0.001542 -0.002919
v 0.013405 0.001542 -0.011653
v 0.012032 0.001542 -0.022613
v 0.002050 0.001542 -0.026696
v -0.007203 0.001542 -0.020120
v -0.007628 0.001542 -0.017346
v -0.005356 0.001542 -0.006764
v 0.003209 0.001542 -0.001256
v 0.011269 0.001542 -0.006419
v 0.013769 0.001542 -0.017254
v 0.007590 0.001542 -0.025975
v -0.005018 0.001542 -0.023199
v -0.008961 0.001234 -0.105322
v -0.007642 0.001234 -0.080279
v -0.006599 0.001234 -0.053987
v -0.010918 0.001234 -0.105614
v -0.013030 0.001234 -0.108554
v -0.013969 0.001234 -0.112727
v -0.014418 0.001234 -0.115653
v -0.014715 0.001234 -0.147286
v -0.014207 0.001080 -0.149366
v -0.011500 0.000000 -0.092077
v -0.011500 0.001126 -0.092077
v -0.010163 0.000000 -0.096482
v -0.010163 0.001166 -0.096482
v -0.011969 0.000000 -0.092123
v -0.011969 0.001123 -0.092123
v -0.012420 0.000000 -0.092260
v -0.012420 0.001120 -0.092260
v -0.009799 0.000000 -0.096183
v -0.009799 0.001174 -0.096183
v -0.012836 0.000000 -0.092482
v -0.012836 0.001118 -0.092482
v -0.009500 0.000000 -0.095818
v -0.009500 0.001187 -0.095818
v -0.013201 0.000000 -0.092781
v -0.013201 0.001117 -0.092781
v -0.009277 0.000000 -0.095402
v -0.009277 0.001196 -0.095402
v -0.013500 0.000000 -0.093146
v -0.013500 0.001117 -0.093146
v -0.013722 0.000000 -0.093562
v -0.013722 0.001118 -0.093562
v -0.009141 0.000000 -0.094951
v -0.009141 0.001201 -0.094951
v -0.013859 0.000000 -0.094013
v -0.013859 0.001120 -0.094013
v -0.009094 0.000000 -0.094482
v -0.009094 0.001202 -0.094482
v -0.013905 0.000000 -0.094482
v -0.013905 0.001123 -0.094482
v -0.009141 0.000000 -0.094013
v -0.009141 0.001199 -0.094013
v -0.013859 0.000000 -0.094951
v -0.013859 0.001126 -0.094951
v -0.009277 0.000000 -0.093562
v -0.009277 0.001191 -0.093562
v -0.013722 0.000000 -0.095402
v -0.013722 0.001130 -0.095402
v -0.009500 0.000000 -0.093146
v -0.009500 0.001180 -0.093146
v -0.013500 0.000000 -0.095818
v -0.013500 0.001135 -0.095818
v -0.009799 0.000000 -0.092781
v -0.009799 0.001166 -0.092781
v -0.013201 0.000000 -0.096183
v -0.013201 0.001140 -0.096183
v -0.010163 0.000000 -0.092482
v -0.010163 0.001149 -0.092482
v -0.012836 0.000000 -0.096482
v -0.012836 0.001145 -0.096482
v -0.010579 0.000000 -0.092260
v -0.010579 0.001135 -0.092260
v -0.012420 0.000000 -0.096704
v -0.012420 0.001149 -0.096704
v -0.011030 0.000000 -0.092123
v -0.011030 0.001130 -0.092123
v -0.011969 0.000000 -0.096841
v -0.011969 0.001154 -0.096841
v -0.011500 0.000000 -0.096887
v -0.011500 0.001158 -0.096887
v -0.011030 0.000000 -0.096841
v -0.011030 0.001161 -0.096841
v -0.010579 0.000000 -0.096704
v -0.010579 0.001164 -0.096704
vn -0.0000 -1.0000 -0.0000
vn -0.0632 -0.9763 -0.2070
vn 0.0398 -0.9662 -0.2547
vn 0.1625 -0.9626 -0.2167
vn 0.2684 -0.9594 -0.0863
vn 0.2681 -0.9633 0.0139
vn 0.2368 -0.9666 0.0983
vn 0.1755 -0.9660 0.1899
vn 0.0923 -0.9589 0.2682
vn -0.0711 -0.9582 0.2773
vn -0.1903 -0.9630 0.1910
vn -0.2564 -0.9629 0.0845
vn -0.2731 -0.9619 0.0129
vn -0.2431 -0.9699 -0.0152
vn 0.1631 -0.9717 0.1709
vn -0.0383 -0.9435 0.3292
vn -0.2781 -0.9569 0.0841
vn -0.2867 -0.9516 -0.1111
vn -0.1004 -0.9574 -0.2706
vn 0.2083 -0.9587 -0.1935
vn 0.2457 -0.9693 -0.0127
vn 0.0962 -0.9563 0.2762
vn -0.1960 -0.9490 0.2469
vn -0.2787 -0.9603 -0.0133
vn -0.2106 -0.9529 -0.2181
vn 0.0827 -0.9585 -0.2728
vn 0.2565 -0.9628 -0.0846
vn 0.2262 -0.9735 0.0333
vn 0.1930 -0.9730 0.1266
vn -0.0303 -0.9795 -0.1991
vn -0.1497 -0.9833 -0.1038
vn -0.1281 -0.9861 -0.1054
vn -0.0960 0.9954 -0.0005
vn 0.0996 0.9940 -0.0448
vn 0.0810 0.9967 -0.0035
vn 0.0774 0.9970 -0.0030
vn 0.0802 0.9968 -0.0034
vn 0.0765 0.9971 -0.0029
vn 0.3178 0.9476 -0.0321
vn -0.0632 0.9763 -0.2070
vn 0.0398 0.9662 -0.2547
vn 0.1625 0.9626 -0.2167
vn 0.2684 0.9594 -0.0863
vn 0.2681 0.9633 0.0139
vn 0.2368 0.9666 0.0983
vn 0.1755 0.9660 0.1899
vn 0.0923 0.9589 0.2682
vn -0.0711 0.9582 0.2773
vn -0.1903 0.9630 0.1910
vn -0.2564 0.9629 0.0845
vn -0.2731 0.9619 0.0129
vn -0.2431 0.9699 -0.0152
vn 0.1631 0.9717 0.1709
vn -0.0383 0.9435 0.3292
vn -0.2781 0.9569 0.0841
vn -0.2867 0.9516 -0.1111
vn -0.1004 0.9574 -0.2706
vn 0.2083 0.9587 -0.1935
vn 0.2457 0.9693 -0.0127
vn 0.0962 0.9563 0.2762
vn -0.1960 0.9490 0.2469
vn -0.2787 0.9603 -0.0133
vn -0.2106 0.9529 -0.2181
vn 0.0827 0.9585 -0.2728
vn 0.2565 0.9628 -0.0846
vn 0.2262 0.9735 0.0333
vn 0.1930 0.9730 0.1266
vn 0.0433 0.9769 -0.2091
vn -0.0429 0.9991 0.0013
vn -0.0448 0.9990 0.0018
vn -0.0433 0.9991 0.0014
vn -0.0452 0.9990 0.0019
vn -0.1638 0.9828 -0.0847
vn -0.0861 0.9938 -0.0708
vn 0.1768 0.9840 -0.0211
vn 0.3053 0.9519 -0.0263
vn -0.2682 -0.0000 -0.9634
vn -0.6957 -0.0000 0.7183
vn -0.6954 -0.0000 -0.7186
vn -0.9395 -0.0000 -0.3426
vn -0.7731 -0.0000 0.6343
vn 0.9216 -0.0000 0.3882
vn -0.0997 -0.0000 0.9950
vn 0.9518 -0.0000 -0.3067
vn 0.1759 -0.0000 -0.9844
vn -0.9513 -0.0000 0.3082
vn -0.9991 -0.0000 0.0431
vn -0.6915 -0.0000 -0.7224
vn 0.9991 -0.0000 -0.0428
vn 0.9989 -0.0000 -0.0469
vn 0.6616 -0.0000 0.7499
vn -0.9999 -0.0000 -0.0165
vn -0.9999 -0.0000 -0.0142
vn -0.6417 -0.0000 0.7670
vn 0.9994 -0.0000 -0.0340
vn -0.9997 -0.0000 0.0247
vn 0.5965 -0.0000 -0.8026
vn -0.9996 -0.0000 0.0291
vn 0.9993 -0.0000 -0.0387
vn -0.3459 -0.0000 -0.9383
vn 0.9969 -0.0000 -0.0788
vn 0.3033 -0.0000 0.9529
vn -0.9641 -0.0000 0.2657
vn 0.9903 -0.0000 0.1391
vn 0.6831 -0.0000 0.7304
vn 0.9526 -0.0000 -0.3042
vn 0.8593 -0.0000 0.5115
vn 0.3010 -0.0000 -0.9536
vn 0.9946 -0.0251 -0.1007
vn -0.2197 -0.0000 0.9756
vn -0.9998 -0.0000 -0.0188
vn -0.9996 -0.0000 -0.0289
vn -1.0000 -0.0000 0.0048
vn -0.0082 -0.0000 -1.0000
vn 0.9992 -0.0000 0.0401
vn 0.3463 -0.0000 0.9381
vn 0.7504 -0.0000 -0.6610
vn 0.9898 -0.0253 -0.1399
vn 0.0980 -0.0000 -0.9952
vn 0.2903 -0.0000 -0.9569
vn 0.4714 -0.0000 -0.8819
vn 0.6344 -0.0000 -0.7730
vn 0.7730 -0.0000 -0.6344
vn 0.8819 -0.0000 -0.4714
vn 0.9569 -0.0000 -0.2903
vn 0.9952 -0.0000 -0.0980
vn 0.9952 -0.0000 0.0980
vn 0.9569 -0.0000 0.2903
vn 0.8819 -0.0000 0.4714
vn 0.7730 -0.0000 0.6344
vn 0.6344 -0.0000 0.7730
vn 0.4714 -0.0000 0.8819
vn 0.2903 -0.0000 0.9569
vn 0.0980 -0.0000 0.9952
vn -0.0980 -0.0000 0.9952
vn -0.2903 -0.0000 0.9569
vn -0.4714 -0.0000 0.8819
vn -0.6344 -0.0000 0.7730
vn -0.7730 -0.0000 0.6344
vn -0.8819 -0.0000 0.4714
vn -0.9569 -0.0000 0.2903
vn -0.9952 -0.0000 0.0980
vn -0.9952 -0.0000 -0.0980
vn -0.9569 -0.0000 -0.2903
vn -0.8819 -0.0000 -0.4714
vn -0.7730 -0.0000 -0.6344
vn -0.6344 -0.0000 -0.7730
vn -0.4714 -0.0000 -0.8819
vn -0.2903 -0.0000 -0.9569
vn -0.0980 -0.0000 -0.9952
vn -0.0080 0.9999 0.0066
vn -0.0301 0.9995 0.0043
vt 0.000000 0.000000
vt 1.000000 0.000000
vt 0.000000 1.000000
vt 1.000000 1.000000
vt 0.000000 1.000000
vt 1.000000 1.000000
vt 0.000000 1.000000
vt 1.000000 1.000000
vt 0.500000 0.000000
vt 1.000000 0.000000
vt 0.500000 0.000000
vt 1.000000 0.000000
vt 0.500000 0.000000
vt 1.000000 0.000000
vt 0.756785 0.000000
vt 1.000000 0.000000
vt 0.750000 0.000000
vt 1.000000 0.000000
vt 1.000000 0.000000
vt 1.000000 0.000000
vt 1.000000 0.000000
vt 1.000000 0.000000
vt 1.000000 0.000000
vt 1.000000 0.000000
vt 1.000000 0.000000
vt 1.000000 0.000000
vt 1.000000 0.000000
vt 1.000000 0.000000
vt 1.000000 0.000000
vt 1.000000 0.000000
vt 1.000000 0.000000
vt 1.000000 0.000000
vt 1.000000 0.000000
vt 1.000000 0.000000
vt 1.000000 0.000000
vt 1.000000 0.000000
vt 1.000000 0.000000
vt 1.000000 0.000000
vt 1.000000 0.000000
vt 1.000000 0.000000
vt 1.000000 0.000000
vt 1.000000 0.000000
vt 1.000000 0.000000
vt 1.000000 0.000000
vt 1.000000 0.000000
vt 1.000000 0.000000
vt 1.000000 0.000000
vt 1.000000 0.000000
vt 1.000000 0.000000
vt 1.000000 0.000000
vt 1.000000 0.000000
vt 1.000000 0.000000
vt 1.000000 0.000000
vt 1.000000 0.000000
vt 1.000000 0.000000
vt 1.000000 0.000000
vt 0.750000 0.000000
vt 0.791152 1.000000
vt 0.828269 0.000000
vt 0.813788 0.000000
vt 0.395576 1.000000
vt 0.197788 1.000000
vt 0.098894 1.000000
vt 0.049447 1.000000
vt 0.500000 1.000000
vt 0.750000 1.000000
vt 0.000000 0.000000
vt 1.000000 0.000000
vt 0.000000 1.000000
vt 1.000000 1.000000
vt 0.000000 1.000000
vt 1.000000 1.000000
vt 0.000000 1.000000
vt 1.000000 1.000000
vt 0.500000 0.000000
vt 1.000000 0.000000
vt 0.500000 0.000000
vt 1.000000 0.000000
vt 0.500000 0.000000
vt 1.000000 0.000000
vt 0.756785 0.000000
vt 1.000000 0.000000
vt 0.750000 0.000000
vt 1.000000 0.000000
vt 1.000000 0.000000
vt 1.000000 0.000000
vt 1.000000 0.000000
vt 1.000000 0.000000
vt 1.000000 0.000000
vt 1.000000 0.000000
vt 1.000000 0.000000
vt 1.000000 0.000000
vt 1.000000 0.000000
vt 1.000000 0.000000
vt 1.000000 0.000000
vt 1.000000 0.000000
vt 1.000000 0.000000
vt 1.000000 0.000000
vt 1.000000 0.000000
vt 1.000000 0.000000
vt 1.000000 0.000000
vt 1.000000 0.000000
vt 1.000000 0.000000
vt 1.000000 0.000000
vt 1.000000 0.000000
vt 1.000000 0.000000
vt 1.000000 0.000000
vt 1.000000 0.000000
vt 1.000000 0.000000
vt 1.000000 0.000000
vt 1.000000 0.000000
vt 1.000000 0.000000
vt 1.000000 0.000000
vt 1.000000 0.000000
vt 1.000000 0.000000
vt 1.000000 0.000000
vt 1.000000 0.000000
vt 1.000000 0.000000
vt 1.000000 0.000000
vt 1.000000 0.000000
vt 1.000000 0.000000
vt 1.000000 0.000000
vt 0.750000 0.000000
vt 0.791152 1.000000
vt 0.828269 0.000000
vt 0.813788 0.000000
vt 0.395576 1.000000
vt 0.197788 1.000000
vt 0.098894 1.000000
vt 0.049447 1.000000
vt 0.500000 1.000000
vt 0.750000 1.000000
vt 1.000000 0.750000
vt 0.000000 0.750000
vt 0.497531 0.301924
vt 1.000000 0.578159
vt 0.000000 0.578159
vt 0.497435 0.301864
vt 0.406250 0.750000
vt 0.637435 0.559206
vt 0.406250 0.572100
vt 0.637344 0.559151
vt 0.968750 0.750000
vt 0.452779 0.279418
vt 0.968750 0.578686
vt 0.452696 0.279367
vt 0.937500 0.750000
vt 0.410027 0.261692
vt 0.937500 0.579101
vt 0.409957 0.261648
vt 0.375000 0.750000
vt 0.673049 0.565621
vt 0.375000 0.570873
vt 0.672962 0.565568
vt 0.906250 0.750000
vt 0.370823 0.249403
vt 0.906250 0.579387
vt 0.370766 0.249367
vt 0.343750 0.750000
vt 0.701795 0.565806
vt 0.343750 0.568938
vt 0.701727 0.565765
vt 0.875000 0.750000
vt 0.336571 0.242998
vt 0.875000 0.579533
vt 0.336524 0.242968
vt 0.312500 0.750000
vt 0.722587 0.559757
vt 0.312500 0.567553
vt 0.722533 0.559724
vt 0.843750 0.750000
vt 0.308489 0.242698
vt 0.843750 0.579533
vt 0.308451 0.242673
vt 0.812500 0.750000
vt 0.287590 0.248503
vt 0.812500 0.579387
vt 0.287560 0.248485
vt 0.281250 0.750000
vt 0.734687 0.547706
vt 0.281250 0.566771
vt 0.734641 0.547678
vt 0.781250 0.750000
vt 0.274657 0.260205
vt 0.781250 0.579102
vt 0.274635 0.260191
vt 0.250000 0.750000
vt 0.737708 0.530120
vt 0.250000 0.566622
vt 0.737664 0.530093
vt 0.750000 0.750000
vt 0.270219 0.277390
vt 0.750000 0.578687
vt 0.270203 0.277380
vt 0.218750 0.750000
vt 0.731617 0.507682
vt 0.218750 0.567113
vt 0.731569 0.507653
vt 0.718750 0.750000
vt 0.274515 0.299448
vt 0.718750 0.578159
vt 0.274503 0.299441
vt 0.187500 0.750000
vt 0.716728 0.481265
vt 0.187500 0.568223
vt 0.716671 0.481229
vt 0.687500 0.750000
vt 0.287474 0.325581
vt 0.687500 0.577539
vt 0.287465 0.325575
vt 0.156250 0.750000
vt 0.693688 0.451894
vt 0.156250 0.569911
vt 0.693616 0.451850
vt 0.656250 0.750000
vt 0.308711 0.354817
vt 0.656250 0.576849
vt 0.308702 0.354811
vt 0.125000 0.750000
vt 0.663446 0.420708
vt 0.125000 0.572111
vt 0.663355 0.420653
vt 0.625000 0.750000
vt 0.337534 0.386042
vt 0.625000 0.576117
vt 0.337521 0.386034
vt 0.093750 0.750000
vt 0.627217 0.388913
vt 0.093750 0.574740
vt 0.627104 0.388844
vt 0.593750 0.750000
vt 0.372954 0.418037
vt 0.593750 0.575371
vt 0.372937 0.418026
vt 0.062500 0.750000
vt 0.586423 0.357733
vt 0.062500 0.576848
vt 0.586299 0.357657
vt 0.562500 0.750000
vt 0.413705 0.449532
vt 0.562500 0.574639
vt 0.413679 0.449516
vt 0.031250 0.750000
vt 0.542641 0.328363
vt 0.031250 0.577538
vt 0.542530 0.328295
vt 0.531250 0.750000
vt 0.458253 0.479267
vt 0.531250 0.573949
vt 0.458217 0.479245
vt 0.500000 0.750000
vt 0.504837 0.506058
vt 0.500000 0.573329
vt 0.504789 0.506029
vt 0.468750 0.750000
vt 0.551533 0.528859
vt 0.468750 0.572801
vt 0.551471 0.528821
vt 0.437500 0.750000
vt 0.596365 0.546799
vt 0.437500 0.572386
vt 0.596288 0.546752
s 1
f 3/3/1 5/5/1 64/65/1 63/64/1
f 5/5/1 7/7/1 8/8/1 65/66/1 64/65/1
f 2/2/1 10/10/1 59/60/1 58/59/1
f 10/10/1 12/12/1 14/15/1 59/60/1
f 57/58/1 4/4/1 2/2/1 58/59/1
f 12/12/2 17/18/2 48/49/2 41/42/2
f 17/18/3 19/20/3 55/56/3 48/49/3
f 19/20/4 21/22/4 47/48/4 55/56/4
f 21/22/5 23/24/5 54/55/5 47/48/5
f 23/24/6 25/26/6 46/47/6 54/55/6
f 25/26/7 27/28/7 53/54/7 46/47/7
f 27/28/8 29/30/8 45/46/8 53/54/8
f 29/30/9 31/32/9 52/53/9 45/46/9
f 31/32/10 33/34/10 44/45/10 52/53/10
f 33/34/11 35/36/11 51/52/11 44/45/11
f 35/36/12 37/38/12 43/44/12 51/52/12
f 37/38/13 39/40/13 50/51/13 43/44/13
f 39/40/14 13/14/14 49/50/14 50/51/14
f 41/42/15 15/16/15 16/17/15 56/57/15
f 55/56/16 20/21/16 18/19/16 48/49/16
f 54/55/17 24/25/17 22/23/17 47/48/17
f 53/54/18 28/29/18 26/27/18 46/47/18
f 52/53/19 32/33/19 30/31/19 45/46/19
f 51/52/20 36/37/20 34/35/20 44/45/20
f 50/51/21 40/41/21 38/39/21 43/44/21
f 48/49/22 18/19/22 15/16/22 41/42/22
f 47/48/23 22/23/23 20/21/23 55/56/23
f 46/47/24 26/27/24 24/25/24 54/55/24
f 45/46/25 30/31/25 28/29/25 53/54/25
f 44/45/26 34/35/26 32/33/26 52/53/26
f 43/44/27 38/39/27 36/37/27 51/52/27
f 49/50/28 42/43/28 40/41/28 50/51/28
f 56/57/29 16/17/29 42/43/29 49/50/29
f 41/42/30 14/15/30 12/12/30
f 14/15/1 13/13/1 11/11/1 59/60/1
f 59/60/1 11/11/1 9/9/1 58/59/1
f 13/14/31 14/15/31 49/50/31
f 14/15/32 41/42/32 56/57/32 49/50/32
f 64/65/1 6/6/1 4/4/1 57/58/1 60/61/1 61/62/1 62/63/1 63/64/1
f 8/8/1 6/6/1 64/65/1 65/66/1
f 68/69/33 128/130/33 129/131/33 70/71/33
f 70/71/34 129/131/34 130/132/34 73/74/34 72/73/34
f 67/68/35 123/125/35 124/126/36 75/76/37
f 75/76/37 124/126/36 79/81/38 77/78/38
f 122/124/39 123/125/39 67/68/39 69/70/39
f 77/78/40 106/108/40 113/115/40 82/84/40
f 82/84/41 113/115/41 120/122/41 84/86/41
f 84/86/42 120/122/42 112/114/42 86/88/42
f 86/88/43 112/114/43 119/121/43 88/90/43
f 88/90/44 119/121/44 111/113/44 90/92/44
f 90/92/45 111/113/45 118/120/45 92/94/45
f 92/94/46 118/120/46 110/112/46 94/96/46
f 94/96/47 110/112/47 117/119/47 96/98/47
f 96/98/48 117/119/48 109/111/48 98/100/48
f 98/100/49 109/111/49 116/118/49 100/102/49
f 100/102/50 116/118/50 108/110/50 102/104/50
f 102/104/51 108/110/51 115/117/51 104/106/51
f 104/106/52 115/117/52 114/116/52 78/80/52
f 106/108/53 121/123/53 81/83/53 80/82/53
f 120/122/54 113/115/54 83/85/54 85/87/54
f 119/121/55 112/114/55 87/89/55 89/91/55
f 118/120/56 111/113/56 91/93/56 93/95/56
f 117/119/57 110/112/57 95/97/57 97/99/57
f 116/118/58 109/111/58 99/101/58 101/103/58
f 115/117/59 108/110/59 103/105/59 105/107/59
f 113/115/60 106/108/60 80/82/60 83/85/60
f 112/114/61 120/122/61 85/87/61 87/89/61
f 111/113/62 119/121/62 89/91/62 91/93/62
f 110/112/63 118/120/63 93/95/63 95/97/63
f 109/111/64 117/119/64 97/99/64 99/101/64
f 108/110/65 116/118/65 101/103/65 103/105/65
f 114/116/66 115/117/66 105/107/66 107/109/66
f 121/123/67 114/116/67 107/109/67 81/83/67
f 106/108/68 77/78/68 79/81/68
f 79/81/69 124/126/70 76/77/71 78/79/69
f 124/126/70 123/125/72 74/75/72 76/77/71
f 78/80/73 114/116/73 79/81/73
f 79/81/74 114/116/74 121/123/74 106/108/74
f 129/131/75 128/130/75 127/129/75 126/128/75 125/127/75 122/124/75 69/70/75 71/72/75
f 73/74/76 130/132/76 129/131/76 71/72/76
f 17/18/77 12/12/77 77/78/77 82/84/77
f 35/36/78 33/34/78 98/100/78 100/102/78
f 7/7/79 5/5/79 70/71/79 72/73/79
f 26/27/80 28/29/80 93/95/80 91/93/80
f 1/1/81 9/9/81 74/75/81 66/67/81
f 27/28/82 25/26/82 90/92/82 92/94/82
f 18/19/83 20/21/83 85/87/83 83/85/83
f 36/37/84 38/39/84 103/105/84 101/103/84
f 19/20/85 17/18/85 82/84/85 84/86/85
f 37/38/86 35/36/86 100/102/86 102/104/86
f 9/9/87 11/11/87 76/77/87 74/75/87
f 28/29/88 30/31/88 95/97/88 93/95/88
f 10/10/89 2/2/90 67/68/90 75/76/89
f 29/30/91 27/28/91 92/94/91 94/96/91
f 3/3/92 1/1/93 66/67/93 68/69/92
f 20/21/94 22/23/94 87/89/94 85/87/94
f 38/39/95 40/41/95 105/107/95 103/105/95
f 11/11/96 13/13/96 78/79/96 76/77/96
f 21/22/97 19/20/97 84/86/97 86/88/97
f 39/40/98 37/38/98 102/104/98 104/106/98
f 12/12/99 10/10/89 75/76/89 77/78/99
f 30/31/100 32/33/100 97/99/100 95/97/100
f 2/2/101 4/4/101 69/70/101 67/68/101
f 31/32/102 29/30/102 94/96/102 96/98/102
f 22/23/103 24/25/103 89/91/103 87/89/103
f 40/41/104 42/43/104 107/109/104 105/107/104
f 16/17/105 15/16/105 80/82/105 81/83/105
f 23/24/106 21/22/106 86/88/106 88/90/106
f 42/43/107 16/17/107 81/83/107 107/109/107
f 32/33/108 34/35/108 99/101/108 97/99/108
f 4/4/109 6/6/109 71/72/109 69/70/109
f 33/34/110 31/32/110 96/98/110 98/100/110
f 5/5/111 3/3/92 68/69/92 70/71/111
f 24/25/112 26/27/112 91/93/112 89/91/112
f 13/14/113 39/40/113 104/106/113 78/80/113
f 8/8/114 7/7/114 72/73/114 73/74/114
f 25/26/115 23/24/115 88/90/115 90/92/115
f 15/16/116 18/19/116 83/85/116 80/82/116
f 34/35/117 36/37/117 101/103/117 99/101/117
f 6/6/118 8/8/118 73/74/118 71/72/118
f 136/145/119 132/136/119 131/133/119 135/143/119
f 138/149/120 136/145/120 135/143/120 137/147/120
f 142/157/121 138/149/121 137/147/121 141/155/121
f 146/165/122 142/157/122 141/155/122 145/163/122
f 149/171/123 150/173/123 146/165/123 145/163/123
f 151/175/124 152/177/124 150/173/124 149/171/124
f 155/183/125 156/185/125 152/177/125 151/175/125
f 159/191/126 160/193/126 156/185/126 155/183/126
f 163/199/127 164/201/127 160/193/127 159/191/127
f 167/207/128 168/209/128 164/201/128 163/199/128
f 171/215/129 172/217/129 168/209/129 167/207/129
f 175/223/130 176/225/130 172/217/130 171/215/130
f 179/231/131 180/233/131 176/225/131 175/223/131
f 183/239/132 184/241/132 180/233/132 179/231/132
f 187/247/133 188/249/133 184/241/133 183/239/133
f 189/251/134 190/253/134 188/249/134 187/247/134
f 191/255/135 192/257/135 190/253/135 189/251/135
f 193/259/136 194/261/136 192/257/136 191/255/136
f 194/261/137 193/259/137 133/139/137 134/141/137
f 139/151/138 140/153/138 134/141/138 133/139/138
f 144/161/139 140/153/139 139/151/139 143/159/139
f 148/169/140 144/161/140 143/159/140 147/167/140
f 154/181/141 148/169/141 147/167/141 153/179/141
f 158/189/142 154/181/142 153/179/142 157/187/142
f 162/197/143 158/189/143 157/187/143 161/195/143
f 166/205/144 162/197/144 161/195/144 165/203/144
f 170/213/145 166/205/145 165/203/145 169/211/145
f 174/221/146 170/213/146 169/211/146 173/219/146
f 178/229/147 174/221/147 173/219/147 177/227/147
f 182/237/148 178/229/148 177/227/148 181/235/148
f 186/245/149 182/237/149 181/235/149 185/243/149
f 186/245/150 185/243/150 131/134/150 132/137/150
f 149/172/1 1/1/1 3/3/1 63/64/1 62/63/1 61/62/1 60/61/1 57/58/1 58/59/1 9/9/1 131/135/1 185/244/1 181/236/1 177/228/1 173/220/1 169/212/1 165/204/1 161/196/1 157/188/1 153/180/1 147/168/1 143/160/1 139/152/1 133/140/1 193/260/1 191/256/1 189/252/1 187/248/1 183/240/1 179/232/1 175/224/1 171/216/1 167/208/1 163/200/1 159/192/1 155/184/1 151/176/1
f 131/135/1 9/9/1 1/1/1 149/172/1 145/164/1 141/156/1 137/148/1 135/144/1
f 150/174/151 66/67/151 74/75/151 132/138/151 136/146/151 138/150/151 142/158/151 146/166/151
f 128/130/152 68/69/152 66/67/152 150/174/152 152/178/152 156/186/152 160/194/152 164/202/152 168/210/152 172/218/152 176/226/152 180/234/152 184/242/152 188/250/152 190/254/152 192/258/152 194/262/152 134/142/152 140/154/152 144/162/152 148/170/152 154/182/152 158/190/152 162/198/152 166/206/152 170/214/152 174/222/152 178/230/152 182/238/152 186/246/152 132/138/152 74/75/152 123/125/152 122/124/152 125/127/152 126/128/152 127/129/152
